<?xml version="1.0" standalone="no"?>
<!DOCTYPE svg PUBLIC "-//W3C//DTD SVG 20010904//EN"
 "http://www.w3.org/TR/2001/REC-SVG-20010904/DTD/svg10.dtd">
<svg version="1.0" xmlns="http://www.w3.org/2000/svg"
 width="4096.000000pt" height="4096.000000pt" viewBox="0 0 4096.000000 4096.000000"
 preserveAspectRatio="xMidYMid meet">

<g transform="translate(0.000000,4096.000000) scale(0.100000,-0.100000)"
fill="#000000" stroke="none">
<path d="M19889 40950 c-787 -25 -1469 -82 -2229 -186 -4085 -560 -7914 -2357
-10974 -5149 -2180 -1990 -3893 -4401 -5053 -7115 -879 -2055 -1419 -4293
-1578 -6540 -78 -1110 -68 -2260 31 -3340 227 -2496 896 -4891 1988 -7125
1974 -4036 5239 -7330 9256 -9338 1451 -726 2960 -1269 4530 -1631 2472 -570
5057 -675 7585 -310 4711 681 9047 3003 12254 6564 1147 1273 2125 2676 2923
4195 1786 3397 2574 7250 2273 11120 -328 4217 -1959 8225 -4671 11479 -3452
4142 -8350 6749 -13679 7280 -407 41 -749 65 -1200 86 -307 14 -1149 20 -1456
10z m6551 -9754 c5993 -2044 6105 -2082 6102 -2106 -29 -270 -1974 -15736
-1979 -15741 -19 -18 -10230 -5663 -10243 -5663 -14 0 -10055 5566 -10074
5584 -6 6 -1793 15380 -1828 15729 l-3 34 5945 2123 c3270 1167 5952 2122
5960 2123 8 0 2762 -937 6120 -2083z"/>
<path d="M20264 32307 c-5 -18 -1874 -4176 -4153 -9240 -2279 -5064 -4141
-9210 -4139 -9213 3 -3 268 0 589 6 321 7 1015 19 1541 29 526 9 959 19 961
21 2 3 375 941 828 2085 l825 2080 2269 7 c1249 5 2923 5 3720 2 l1450 -6 917
-2102 917 -2101 48 -7 c26 -3 356 -11 733 -18 377 -6 1020 -17 1429 -25 409
-8 746 -13 749 -10 3 2 -1936 4146 -4308 9207 -2373 5062 -4325 9229 -4339
9260 l-26 57 -11 -32z m1450 -8833 c768 -1607 1396 -2924 1396 -2928 0 -3
-1186 -6 -2635 -6 -1449 0 -2635 2 -2635 4 0 4 1989 4718 2457 5825 8 18 16
32 17 30 2 -2 632 -1319 1400 -2925z"/>
</g>
</svg>
