<?xml version="1.0" standalone="no"?>
<!DOCTYPE svg PUBLIC "-//W3C//DTD SVG 20010904//EN"
 "http://www.w3.org/TR/2001/REC-SVG-20010904/DTD/svg10.dtd">
<svg version="1.0" xmlns="http://www.w3.org/2000/svg"
 width="512.000000pt" height="512.000000pt" viewBox="0 0 512.000000 512.000000"
 preserveAspectRatio="xMidYMid meet">

<g transform="translate(0.000000,512.000000) scale(0.100000,-0.100000)"
fill="#000000" stroke="none">
<path d="M2455 4510 c-254 -51 -435 -273 -435 -534 0 -165 44 -270 160 -387
113 -114 229 -162 390 -161 256 1 482 188 531 440 26 136 -7 299 -83 410 -123
180 -352 274 -563 232z"/>
<path d="M1520 4369 c-97 -26 -212 -98 -266 -166 -36 -45 -80 -125 -89 -164
-6 -23 -1 -31 37 -57 124 -86 220 -240 244 -391 4 -22 8 -41 9 -41 1 0 28 9
61 21 73 26 218 36 294 20 30 -6 82 -23 115 -36 l60 -25 29 30 29 29 -26 40
c-72 109 -102 217 -101 366 1 92 5 122 27 185 l27 75 -27 23 c-39 32 -108 67
-172 86 -60 18 -194 20 -251 5z"/>
<path d="M3370 4361 c-74 -24 -127 -52 -176 -95 l-42 -36 20 -62 c47 -150 31
-326 -42 -472 l-39 -79 29 -37 30 -38 67 25 c96 36 238 42 350 16 l83 -20 6
36 c23 136 74 232 179 336 44 45 95 87 113 94 29 12 33 18 27 39 -3 14 -17 44
-30 67 -61 103 -155 179 -274 221 -84 30 -218 32 -301 5z"/>
<path d="M4195 4004 c-86 -20 -117 -31 -170 -57 -72 -36 -173 -134 -207 -202
-31 -62 -55 -136 -61 -193 -5 -41 -4 -43 38 -72 62 -43 139 -133 178 -209 35
-67 67 -162 67 -200 0 -58 222 -93 351 -55 220 65 369 259 369 483 0 221 -135
409 -346 481 -55 19 -181 33 -219 24z"/>
<path d="M740 3974 c-336 -89 -488 -475 -300 -761 126 -192 369 -278 579 -205
l55 18 12 60 c14 67 37 129 73 193 29 52 126 158 176 192 32 22 34 27 29 64
-19 128 -66 225 -150 308 -125 124 -309 175 -474 131z"/>
<path d="M1580 3482 c-97 -28 -164 -66 -228 -130 -100 -100 -152 -222 -152
-357 0 -226 149 -423 367 -486 115 -32 231 -23 344 27 56 25 57 26 74 92 29
105 79 193 157 277 l71 76 -7 52 c-17 127 -63 226 -144 310 -124 128 -320 185
-482 139z"/>
<path d="M3350 3494 c-208 -40 -363 -186 -415 -389 -23 -92 -22 -95 53 -157
109 -88 197 -240 218 -374 6 -39 9 -42 57 -59 29 -9 91 -19 138 -22 145 -9
273 41 381 149 124 124 173 298 132 467 -54 220 -239 374 -464 386 -41 2 -86
1 -100 -1z"/>
<path d="M2270 3384 c-86 -10 -84 -7 -45 -77 36 -65 75 -196 75 -250 0 -24 3
-28 18 -21 109 48 159 58 272 58 87 -1 130 -6 177 -21 l61 -20 6 51 c9 66 48
178 80 226 23 35 24 39 8 46 -18 8 -592 15 -652 8z"/>
<path d="M2520 2974 c-113 -22 -207 -71 -285 -149 -100 -99 -148 -214 -148
-350 0 -281 223 -505 503 -505 276 0 500 222 500 496 0 50 -7 110 -16 142 -45
158 -172 290 -326 341 -63 21 -181 34 -228 25z"/>
<path d="M4045 2923 c-23 -147 -64 -244 -140 -338 l-46 -55 48 -20 c225 -94
378 -254 456 -478 28 -79 31 -101 35 -237 2 -82 7 -153 11 -157 10 -11 206 8
333 32 95 18 310 85 361 111 18 10 18 26 15 332 -4 302 -5 326 -27 392 -64
199 -213 351 -413 423 -71 26 -80 27 -350 30 l-277 4 -6 -39z"/>
<path d="M564 2939 c-210 -27 -399 -162 -493 -353 -64 -128 -71 -177 -71 -518
l0 -297 79 -30 c175 -68 355 -107 537 -118 l102 -6 4 159 c5 129 10 171 28
224 73 214 210 370 408 468 l98 48 -44 54 c-75 96 -114 192 -137 343 l-6 37
-222 -1 c-122 -1 -250 -5 -283 -10z"/>
<path d="M1323 2430 c-215 -56 -383 -217 -454 -435 -22 -66 -23 -88 -27 -396
l-3 -325 133 -37 c214 -59 483 -107 599 -107 l39 0 0 123 c0 67 7 152 14 188
55 258 243 471 503 570 22 8 21 10 -27 74 -78 103 -113 186 -128 300 l-7 60
-285 2 c-251 2 -293 0 -357 -17z"/>
<path d="M3210 2418 c-1 -97 -58 -239 -137 -341 l-44 -57 48 -20 c207 -87 358
-237 437 -434 41 -102 56 -187 56 -323 l0 -123 63 6 c248 21 420 58 586 126
l73 31 -5 316 c-5 348 -8 369 -71 496 -83 165 -235 290 -411 335 -68 17 -111
20 -337 20 l-258 0 0 -32z"/>
<path d="M2230 1915 c-227 -50 -421 -240 -480 -471 -18 -69 -20 -111 -20 -385
l0 -308 68 -20 c566 -169 1161 -172 1564 -9 l83 34 0 319 c0 307 -1 323 -23
395 -62 200 -211 354 -414 428 -73 27 -74 27 -393 29 -247 2 -335 -1 -385 -12z"/>
</g>
</svg>
