<?xml version="1.0" standalone="no"?>
<!DOCTYPE svg PUBLIC "-//W3C//DTD SVG 20010904//EN"
 "http://www.w3.org/TR/2001/REC-SVG-20010904/DTD/svg10.dtd">
<svg version="1.0" xmlns="http://www.w3.org/2000/svg"
 width="50.000000pt" height="50.000000pt" viewBox="0 0 50.000000 50.000000"
 preserveAspectRatio="xMidYMid meet">

<g transform="translate(0.000000,50.000000) scale(0.100000,-0.100000)"
fill="#000000" stroke="none">
<path d="M136 464 c-31 -30 -9 -84 34 -84 24 0 50 26 50 50 0 24 -26 50 -50
50 -10 0 -26 -7 -34 -16z"/>
<path d="M296 464 c-30 -30 -9 -84 33 -84 21 0 51 30 51 52 0 19 -32 48 -53
48 -8 0 -23 -7 -31 -16z"/>
<path d="M155 353 c15 -35 17 -71 5 -93 -9 -16 -9 -25 -1 -33 8 -8 11 -3 11
16 0 29 39 77 61 77 7 0 2 11 -11 25 -28 30 -77 35 -65 8z"/>
<path d="M279 349 l-22 -22 26 -14 c30 -15 47 -42 47 -74 0 -17 3 -20 11 -12
8 8 8 17 -1 33 -12 22 -10 58 5 93 11 26 -39 23 -66 -4z"/>
<path d="M50 340 c-11 -11 -20 -29 -20 -40 0 -26 34 -60 60 -60 26 0 60 34 60
60 0 26 -34 60 -60 60 -11 0 -29 -9 -40 -20z"/>
<path d="M370 340 c-11 -11 -20 -29 -20 -40 0 -11 9 -29 20 -40 11 -11 29 -20
40 -20 26 0 60 34 60 60 0 11 -9 29 -20 40 -11 11 -29 20 -40 20 -11 0 -29 -9
-40 -20z"/>
<path d="M210 280 c-11 -11 -20 -29 -20 -40 0 -26 34 -60 60 -60 26 0 60 34
60 60 0 11 -9 29 -20 40 -11 11 -29 20 -40 20 -11 0 -29 -9 -40 -20z"/>
<path d="M29 201 c-21 -22 -29 -39 -29 -65 0 -42 23 -56 93 -56 40 1 43 3 64
47 l22 46 -29 28 c-39 39 -82 39 -121 0z"/>
<path d="M350 201 l-29 -28 22 -46 c21 -44 24 -46 64 -47 70 0 93 14 93 56 0
26 -8 43 -29 65 -39 39 -82 39 -121 0z"/>
<path d="M189 141 c-39 -40 -41 -97 -3 -111 33 -13 95 -13 128 0 62 23 9 140
-64 140 -22 0 -41 -9 -61 -29z"/>
</g>
</svg>
