<?xml version="1.0" standalone="no"?>
<!DOCTYPE svg PUBLIC "-//W3C//DTD SVG 20010904//EN"
 "http://www.w3.org/TR/2001/REC-SVG-20010904/DTD/svg10.dtd">
<svg version="1.0" xmlns="http://www.w3.org/2000/svg"
 width="512.000000pt" height="512.000000pt" viewBox="0 0 512.000000 512.000000"
 preserveAspectRatio="xMidYMid meet">

<g transform="translate(0.000000,512.000000) scale(0.100000,-0.100000)"
fill="#000000" stroke="none">
<path d="M1505 5110 c-735 -48 -1275 -207 -1443 -426 -66 -86 -62 42 -62
-1788 l0 -1661 24 -50 c12 -27 35 -65 51 -83 65 -77 245 -178 420 -235 273
-90 679 -156 1065 -175 l145 -7 5 -255 5 -255 28 -48 c33 -56 89 -99 149 -116
32 -9 415 -11 1543 -9 1441 3 1501 4 1535 22 49 26 98 74 123 121 l22 40 0
1010 0 1010 -22 40 c-25 47 -74 95 -123 121 -33 18 -72 19 -627 22 l-593 3 0
1095 c0 1211 5 1125 -66 1211 -157 192 -607 335 -1254 398 -187 19 -731 27
-925 15z m700 -170 c630 -37 1152 -167 1326 -331 42 -38 49 -51 49 -82 0 -118
-280 -255 -690 -337 -345 -70 -666 -95 -1125 -87 -346 6 -507 19 -770 63 -432
72 -765 204 -815 323 -17 42 -7 71 41 119 230 227 1149 381 1984 332z m-1934
-739 c221 -116 554 -197 1009 -248 209 -23 925 -26 1140 -5 492 49 903 150
1100 271 28 17 52 31 55 31 3 0 5 -196 5 -435 l0 -435 -40 -44 c-147 -160
-664 -295 -1284 -337 -226 -15 -755 -6 -956 16 -506 55 -914 170 -1070 301
-61 52 -60 43 -60 509 0 234 2 425 4 425 2 0 45 -22 97 -49z m14 -1118 c257
-129 688 -220 1199 -254 230 -15 787 -6 991 16 472 50 867 151 1053 268 23 15
44 27 47 27 3 0 5 -169 5 -375 l0 -375 -823 0 c-902 0 -879 1 -956 -59 -22
-17 -51 -55 -65 -83 -25 -49 -26 -60 -26 -211 l0 -160 -112 7 c-177 10 -343
25 -468 42 -465 62 -863 201 -940 327 -19 30 -20 53 -20 465 l0 433 28 -19
c15 -11 54 -33 87 -49z m4636 -892 l29 -29 0 -967 0 -967 -29 -29 -29 -29
-1472 0 c-1568 0 -1516 -2 -1534 45 -3 9 -6 452 -6 983 1 1018 -1 984 45 1010
15 8 404 11 1493 12 l1474 0 29 -29z m-4660 -205 c265 -141 701 -234 1257
-268 l192 -12 0 -424 0 -425 -143 6 c-604 28 -1163 165 -1341 328 l-51 47 -3
396 c-1 218 -1 396 2 396 2 0 41 -20 87 -44z"/>
<path d="M2465 1780 c-55 -17 -139 -75 -171 -117 -53 -69 -77 -146 -72 -229
11 -178 134 -302 321 -323 85 -10 103 -18 145 -65 94 -107 15 -276 -128 -276
-89 0 -151 59 -170 161 -12 63 -37 89 -87 89 -23 0 -42 -8 -60 -26 -23 -24
-25 -31 -21 -89 10 -115 85 -222 197 -277 67 -33 215 -33 282 0 75 37 125 87
161 160 30 60 33 76 33 152 0 71 -4 94 -27 141 -53 115 -154 183 -293 198 -90
11 -136 37 -165 97 -26 53 -25 101 3 155 44 83 146 113 229 67 48 -28 75 -69
88 -139 12 -63 37 -89 87 -89 23 0 42 8 60 26 23 23 25 31 20 84 -6 68 -41
151 -85 201 -17 20 -60 51 -94 69 -54 29 -74 34 -143 37 -44 1 -93 -2 -110 -7z"/>
<path d="M3285 1766 c-75 -31 -164 -121 -191 -192 -26 -71 -34 -620 -9 -716
50 -199 248 -304 446 -238 l60 21 26 -21 c80 -63 177 42 113 122 -19 25 -19
25 0 77 18 47 20 78 20 376 0 303 -1 328 -21 379 -27 72 -96 148 -166 182 -82
40 -195 44 -278 10z m230 -181 c63 -47 65 -60 65 -389 l0 -294 -38 21 c-35 18
-42 19 -71 7 -17 -7 -37 -22 -43 -33 -15 -29 -12 -76 6 -96 23 -26 20 -31 -19
-31 -72 0 -141 50 -164 119 -7 22 -11 130 -11 306 0 176 4 284 11 306 14 42
54 87 94 105 48 23 127 13 170 -21z"/>
<path d="M3956 1769 l-26 -20 0 -554 0 -554 26 -20 c26 -20 38 -21 313 -21
275 0 288 1 309 20 29 27 37 63 20 96 -23 50 -44 54 -280 54 l-217 0 -3 486
-3 486 -28 24 c-34 29 -76 31 -111 3z"/>
</g>
</svg>
